# xmcd
#
# Track frame offsets:
#	150
#	19198
#	37469
#	52066
#	66471
#	81967
#
# Disc length: 1260 seconds
#
# Revision: 1
# Processed by: cddbd v1.5.2PL0 Copyright (c) Steve Scherf et al.
# Submitted via: audiograbber 1.83.01
#
DISCID=5904ea06
DTITLE=Various Artist - CDX 437
DYEAR=2007
DGENRE=Country
TTITLE0=Kenny Chesney - Shiftwork (single edit)
TTITLE1=Kevin Fowler - Best Mistake I Ever Made
TTITLE2=Kacey Jones - Chicken Or Dumplins
TTITLE3=Ennis - Give Me Love
TTITLE4=Becky Hobbs - I Don't Dance With Strangers
TTITLE5=Buck and Duke - Women Keep Driving Me Crazy
EXTD=
EXTT0=
EXTT1=
EXTT2=
EXTT3=
EXTT4=
EXTT5=
PLAYORDER=
